<?xml version="1.0" standalone="no"?>
<!DOCTYPE svg PUBLIC "-//W3C//DTD SVG 20010904//EN"
 "http://www.w3.org/TR/2001/REC-SVG-20010904/DTD/svg10.dtd">
<svg version="1.0" xmlns="http://www.w3.org/2000/svg"
 width="200.000000pt" height="84.000000pt" viewBox="0 0 200.000000 84.000000"
 preserveAspectRatio="xMidYMid meet">

<g transform="translate(0.000000,84.000000) scale(0.100000,-0.100000)"
fill="#000000" stroke="none">
<path d="M0 415 l0 -265 60 0 c46 0 60 3 60 15 0 12 6 11 33 -5 61 -38 151
-14 198 52 29 41 37 129 16 180 -34 80 -141 121 -212 80 l-35 -21 0 114 0 115
-60 0 -60 0 0 -265z m234 -46 c68 -53 -6 -161 -83 -119 -10 5 -24 22 -30 39
-10 24 -10 34 3 59 24 47 66 55 110 21z"/>
<path d="M1660 415 l0 -265 60 0 60 0 0 265 0 265 -60 0 -60 0 0 -265z"/>
<path d="M530 468 c-68 -35 -85 -66 -85 -151 0 -60 4 -78 24 -106 45 -62 157
-90 234 -57 32 13 87 68 87 87 0 15 -103 10 -124 -6 -43 -33 -106 -7 -106 43
0 21 3 22 121 22 l122 0 -7 42 c-4 24 -15 56 -24 73 -23 40 -94 75 -152 75
-28 0 -63 -9 -90 -22z m134 -69 c14 -11 26 -25 26 -30 0 -5 -29 -9 -65 -9 -67
0 -74 5 -52 32 25 32 56 35 91 7z"/>
<path d="M1320 468 c-68 -35 -85 -66 -85 -151 0 -60 4 -78 24 -106 45 -62 157
-90 234 -57 32 13 87 68 87 87 0 15 -103 10 -124 -6 -43 -33 -106 -7 -106 43
0 21 3 22 121 22 l122 0 -7 42 c-4 24 -15 56 -24 73 -23 40 -94 75 -152 75
-28 0 -63 -9 -90 -22z m134 -69 c14 -11 26 -25 26 -30 0 -5 -29 -9 -65 -9 -67
0 -74 5 -52 32 25 32 56 35 91 7z"/>
<path d="M860 430 l0 -50 66 0 66 0 -76 -110 c-42 -60 -76 -112 -76 -115 0 -3
74 -5 165 -5 l165 0 0 50 0 50 -70 0 -70 0 68 103 c38 56 72 108 76 115 6 9
-28 12 -153 12 l-161 0 0 -50z"/>
</g>
</svg>
